<svg width="996" height="247" viewBox="0 0 996 247" fill="none" xmlns="http://www.w3.org/2000/svg">
<path d="M294.094 86.9113L283.393 92.3215C279.418 94.3367 276.131 97.4728 273.946 101.336C271.761 105.199 270.776 109.618 271.112 114.036C271.349 117.174 271.473 120.348 271.473 123.523C271.465 146.295 265.116 168.622 253.127 188.036C241.138 207.451 223.975 223.198 203.536 233.536C183.097 243.875 160.176 248.404 137.307 246.621C114.437 244.839 92.5096 236.814 73.9463 223.436L95.9199 212.32L97.1641 211.664C112.662 220.29 130.163 224.743 147.93 224.579C165.696 224.416 183.112 219.642 198.445 210.732C213.779 201.822 226.498 189.085 235.341 173.786C244.183 158.488 248.841 141.16 248.853 123.523C248.851 119.078 248.56 114.639 247.981 110.232L76.8086 196.818L41.3965 214.728L0 235.664V210.454L41.6826 189.369L61.9395 179.106L294.094 61.7638V86.9113ZM857.93 78.8273C894.411 78.8274 909.878 95.3666 909.629 132.064L909.392 161.806C909.143 183.594 910.113 198.219 912.764 210.485H890.542C889.603 204.613 889.037 198.689 888.85 192.747C880.886 206.198 867.597 213.61 844.404 213.61C820.004 213.61 799.711 200.171 799.711 176.431C799.711 145.922 834.5 136.868 887.643 131.1V127.987C887.643 104.247 874.603 96.5764 858.166 96.5763C839.813 96.5763 829.424 106.174 828.453 122.232H805.745C807.674 94.4154 832.808 78.8273 857.93 78.8273ZM436.352 33.4709C467.956 33.4709 495.777 47.6016 502.795 80.9513H478.868C473.07 61.0526 452.8 54.0988 435.381 54.0988C421.818 54.0988 398.178 60.0894 398.178 79.5187C398.178 94.8719 410.309 102.53 426.796 106.137L447.027 110.695C473.854 116.45 505.98 126.53 505.98 161.534C505.98 195.354 474.139 213.585 439.3 213.585C397.991 213.585 371.899 191.092 367.308 156.507H391.521C396.112 180.482 412.536 192.957 439.835 192.957C465.927 192.957 480.659 180.989 480.659 163.696C480.659 145.231 464.957 138.042 442.971 133.002L421.134 128.444C396.97 123.169 373.056 109.731 373.056 80.9513C373.056 47.6262 408.082 33.4709 436.352 33.4709ZM643.779 79.2824C683.633 79.2824 707.075 112.138 704.412 153.146H604.398C605.12 180.962 625.414 194.389 644.501 194.389C663.837 194.389 674.463 185.755 680.013 173.045H702.72C696.921 195.118 676.155 213.583 644.501 213.583C603.428 213.583 580.721 184.322 580.721 146.192C580.721 105.221 608.268 79.2824 643.779 79.2824ZM988.841 80.7404C991.017 80.7097 993.193 80.7878 995.36 80.9748V104.295C991.286 103.655 987.168 103.332 983.043 103.331C962.749 103.331 952.596 114.078 952.596 142.858V210.484H930.609V81.4562H952.123V103.998C958.643 89.3864 971.683 81.4568 988.841 80.7404ZM553.175 81.4435H577.812V98.9582H553.175V175.465C553.175 188.891 554.133 192.251 566.7 192.251H577.812V210.47H561.872C536.987 210.47 531.188 204.961 531.188 178.096V98.9582H510.646V81.4435H531.188V49.0695H553.175V81.4435ZM741.204 210.465H719.218V36.5031H741.204V210.465ZM785.065 36.5031V210.465H763.079V36.5031H785.065ZM889.335 148.367C849.469 152.209 824.11 158.2 824.11 175.949C824.111 188.19 833.53 196.342 849.232 196.342C869.775 196.342 889.335 186.979 889.335 156.532V148.367ZM90.5264 13.4787C110.966 3.133 133.889 -1.40113 156.762 0.377122C179.635 2.1554 201.567 10.1775 220.135 23.5558L217.111 25.0871L196.842 35.339C181.348 26.7488 163.861 22.3254 146.115 22.508C128.369 22.6906 110.98 27.4729 95.668 36.3801C80.3563 45.2873 67.6542 58.0114 58.8203 73.2912C49.9866 88.5708 45.3272 105.876 45.3037 123.493C45.3055 127.909 45.5966 132.32 46.1748 136.697L217.173 50.2355L252.585 32.3254L294.094 11.3029V36.5246L252.224 57.7082L231.968 67.9474L51.6992 159.129L41.6582 164.205L31.4678 169.368L0 185.289V160.055L10.6885 154.645C14.6664 152.633 17.9562 149.498 20.1436 145.634C22.3309 141.77 23.3183 137.35 22.9814 132.931C22.7409 129.81 22.6211 126.676 22.6211 123.53C22.6188 100.755 28.9597 78.4227 40.9434 59.0011C52.9272 39.5795 70.087 23.8244 90.5264 13.4787ZM643.779 97.9826C624.444 97.9826 606.576 108.494 604.635 134.433H681.219C680.497 116.214 667.209 97.9826 643.779 97.9826Z" fill="black"/>
</svg>
