<svg width="895" height="272" viewBox="0 0 895 272" fill="none" xmlns="http://www.w3.org/2000/svg">
<path d="M366.751 60.5029V72.0641H384.575V79.9029H366.751V102.543C366.751 104.295 366.956 105.769 367.365 106.966C367.802 108.134 368.401 109.054 369.16 109.725C369.919 110.426 370.824 110.922 371.875 111.214C372.926 111.506 374.079 111.652 375.335 111.652C376.24 111.652 377.174 111.608 378.137 111.521C379.101 111.433 380.035 111.317 380.94 111.171C381.816 111.054 382.633 110.922 383.392 110.776C384.181 110.601 384.838 110.455 385.363 110.338L386.502 117.564C385.743 118.031 384.823 118.44 383.743 118.79C382.692 119.112 381.553 119.389 380.327 119.622C379.101 119.856 377.816 120.031 376.473 120.148C375.16 120.294 373.846 120.367 372.532 120.367C370.138 120.367 367.934 120.046 365.919 119.403C363.934 118.732 362.226 117.696 360.796 116.294C359.365 114.922 358.241 113.156 357.424 110.995C356.635 108.835 356.241 106.237 356.241 103.2V79.9029H344.768V72.0641H356.241V60.5029H366.751ZM421.711 120.323C418.207 120.323 414.996 119.739 412.076 118.571C409.186 117.404 406.705 115.783 404.632 113.71C402.559 111.667 400.953 109.258 399.815 106.485C398.705 103.682 398.15 100.66 398.15 97.4198V95.6243C398.15 91.9166 398.734 88.5592 399.902 85.5521C401.07 82.545 402.676 79.9759 404.719 77.8447C406.763 75.7134 409.128 74.0785 411.814 72.9399C414.529 71.7721 417.419 71.1882 420.484 71.1882C423.9 71.1882 426.922 71.7721 429.549 72.9399C432.177 74.0785 434.381 75.6696 436.162 77.7133C437.943 79.7861 439.286 82.2531 440.191 85.1142C441.096 87.9753 441.549 91.0991 441.549 94.4857V98.9963H408.704V99.2153C409.025 101.288 409.522 103.025 410.193 104.427C410.865 105.828 411.784 107.083 412.952 108.193C414.12 109.36 415.492 110.265 417.069 110.908C418.674 111.55 420.426 111.871 422.324 111.871C424.922 111.871 427.345 111.375 429.593 110.382C431.841 109.36 433.695 107.915 435.155 106.047L440.76 111.477C439.184 113.754 436.761 115.798 433.491 117.608C430.25 119.418 426.323 120.323 421.711 120.323ZM420.441 79.6839C418.952 79.6839 417.565 79.9613 416.28 80.516C415.025 81.0415 413.901 81.8006 412.908 82.7932C411.916 83.815 411.084 85.0412 410.412 86.4717C409.741 87.9023 409.244 89.5226 408.923 91.3327H431.214V90.632C431.214 89.2598 430.965 87.9023 430.469 86.5593C429.973 85.1872 429.272 83.9902 428.367 82.9684C427.491 81.9757 426.382 81.1875 425.039 80.6036C423.725 79.9905 422.192 79.6839 420.441 79.6839ZM455.474 52.1824H481.005V110.776H495.369V119.447H455.474V110.776H470.451V60.8971H455.474V52.1824ZM509.339 52.1824H534.87V110.776H549.234V119.447H509.339V110.776H524.316V60.8971H509.339V52.1824ZM592.238 119.447L591.624 112.835C590.019 115.199 588.063 117.053 585.756 118.396C583.45 119.71 580.866 120.367 578.005 120.367C575.553 120.367 573.305 119.987 571.261 119.228C569.247 118.44 567.51 117.228 566.05 115.594C564.619 113.959 563.51 111.871 562.722 109.331C561.933 106.762 561.539 103.697 561.539 100.135V72.0641H572.006V100.222C572.006 102.412 572.166 104.251 572.487 105.74C572.808 107.2 573.319 108.368 574.02 109.244C574.721 110.149 575.611 110.791 576.691 111.171C577.771 111.55 579.041 111.74 580.501 111.74C582.019 111.74 583.377 111.579 584.574 111.258C585.771 110.908 586.822 110.441 587.727 109.857C588.486 109.331 589.157 108.718 589.741 108.017C590.325 107.288 590.822 106.485 591.23 105.609V72.0641H601.74V119.447H592.238ZM646.014 106.616C646.014 105.799 645.825 105.069 645.445 104.427C645.095 103.784 644.496 103.171 643.65 102.587C642.745 102.062 641.562 101.565 640.102 101.098C638.643 100.631 636.818 100.193 634.628 99.7846C631.884 99.2299 629.373 98.5438 627.096 97.7263C624.848 96.9089 622.907 95.9162 621.272 94.7485C619.666 93.6391 618.411 92.3253 617.506 90.8072C616.601 89.289 616.148 87.5227 616.148 85.5083C616.148 83.5814 616.601 81.7568 617.506 80.0343C618.44 78.2826 619.768 76.7499 621.491 75.4361C623.184 74.1223 625.228 73.0859 627.622 72.3268C630.045 71.5678 632.731 71.1882 635.679 71.1882C638.832 71.1882 641.664 71.5824 644.175 72.3706C646.686 73.1297 648.817 74.1807 650.569 75.5237C652.291 76.8666 653.62 78.4578 654.554 80.297C655.488 82.1363 655.955 84.1215 655.955 86.2528H645.489C645.489 85.3769 645.299 84.5449 644.92 83.7566C644.569 82.9392 644.044 82.2093 643.343 81.567C642.526 80.8079 641.475 80.2094 640.19 79.7715C638.905 79.3044 637.402 79.0708 635.679 79.0708C634.103 79.0708 632.716 79.246 631.519 79.5964C630.351 79.9175 629.388 80.37 628.629 80.9539C627.87 81.4794 627.3 82.1071 626.921 82.837C626.541 83.5376 626.352 84.2821 626.352 85.0704C626.352 85.8878 626.512 86.6323 626.833 87.3038C627.155 87.9461 627.724 88.5154 628.541 89.0117C629.3 89.5372 630.351 90.0189 631.694 90.4568C633.066 90.8947 634.789 91.2889 636.862 91.6392C639.752 92.1647 642.394 92.807 644.788 93.5661C647.182 94.3251 649.226 95.2594 650.919 96.3688C652.612 97.5366 653.926 98.9087 654.86 100.485C655.795 102.062 656.262 103.93 656.262 106.091C656.262 108.193 655.765 110.12 654.773 111.871C653.809 113.623 652.437 115.126 650.656 116.382C648.846 117.637 646.686 118.615 644.175 119.316C641.664 120.017 638.876 120.367 635.811 120.367C632.395 120.367 629.359 119.914 626.702 119.009C624.074 118.104 621.87 116.907 620.089 115.418C618.279 113.959 616.907 112.28 615.973 110.382C615.039 108.485 614.572 106.558 614.572 104.602H624.731C624.819 106.061 625.198 107.302 625.87 108.324C626.571 109.317 627.446 110.12 628.497 110.733C629.519 111.375 630.687 111.842 632.001 112.134C633.315 112.397 634.643 112.528 635.986 112.528C637.796 112.528 639.373 112.338 640.716 111.959C642.088 111.579 643.182 111.068 644 110.426C644.671 109.901 645.168 109.331 645.489 108.718C645.839 108.076 646.014 107.375 646.014 106.616Z" fill="black"/>
<path d="M342.311 179.731L343.078 175.461C345.523 161.703 350.139 151.795 356.927 145.738C363.751 139.68 371.743 136.651 380.903 136.651C389.808 136.651 396.304 138.877 400.391 143.329C404.478 147.745 405.737 154.295 404.168 162.981L403.511 166.813H389.224L390.1 161.831C390.939 157.087 390.446 153.492 388.622 151.047C386.833 148.602 383.713 147.38 379.261 147.38C374.371 147.38 370.229 149.35 366.835 153.292C363.478 157.233 361.069 163.382 359.609 171.739L357.529 183.454C356.069 191.811 356.361 197.978 358.405 201.956C360.485 205.934 363.952 207.922 368.806 207.922C373.148 207.922 376.634 206.7 379.261 204.255C381.925 201.773 383.732 197.868 384.68 192.54L385.337 188.544H399.679L398.803 193.252C397.417 201.135 393.931 207.32 388.348 211.809C382.764 216.261 375.466 218.487 366.452 218.487C356.745 218.487 349.701 215.404 345.322 209.236C340.979 203.069 339.976 193.234 342.311 179.731ZM403.949 193.088L404.277 191.336C405.628 183.673 409.149 177.505 414.842 172.834C420.535 168.126 427.414 165.772 435.479 165.772C443.544 165.772 449.584 168.126 453.598 172.834C457.613 177.505 458.945 183.673 457.594 191.336L457.266 193.088C455.916 200.788 452.394 206.992 446.701 211.7C441.045 216.371 434.166 218.706 426.064 218.706C417.999 218.706 411.959 216.371 407.945 211.7C403.931 206.992 402.599 200.788 403.949 193.088ZM419.003 190.953L418.565 193.471C417.798 197.814 418.181 201.354 419.714 204.091C421.283 206.828 424.02 208.196 427.925 208.196C431.866 208.196 435.096 206.828 437.614 204.091C440.169 201.354 441.811 197.796 442.541 193.416L442.979 190.953C443.782 186.61 443.38 183.107 441.774 180.443C440.205 177.742 437.45 176.392 433.509 176.392C429.604 176.392 426.392 177.742 423.874 180.443C421.393 183.107 419.769 186.61 419.003 190.953ZM462.193 193.088L462.521 191.336C463.871 183.673 467.393 177.505 473.086 172.834C478.779 168.126 485.658 165.772 493.723 165.772C501.788 165.772 507.828 168.126 511.842 172.834C515.856 177.505 517.188 183.673 515.838 191.336L515.51 193.088C514.159 200.788 510.638 206.992 504.945 211.7C499.288 216.371 492.409 218.706 484.308 218.706C476.243 218.706 470.203 216.371 466.189 211.7C462.174 206.992 460.842 200.788 462.193 193.088ZM477.246 190.953L476.808 193.471C476.042 197.814 476.425 201.354 477.958 204.091C479.527 206.828 482.264 208.196 486.169 208.196C490.11 208.196 493.34 206.828 495.858 204.091C498.412 201.354 500.055 197.796 500.784 193.416L501.222 190.953C502.025 186.61 501.624 183.107 500.018 180.443C498.449 177.742 495.694 176.392 491.752 176.392C487.848 176.392 484.636 177.742 482.118 180.443C479.636 183.107 478.013 186.61 477.246 190.953ZM514.743 241.205L527.771 167.196H541.84L540.69 173.71L540.8 173.655C542.551 171.465 544.978 169.641 548.08 168.181C551.219 166.685 554.631 165.937 558.317 165.937C564.703 165.937 569.374 168.163 572.33 172.615C575.322 177.031 576.125 183.198 574.739 191.117L574.465 192.869C573.042 200.715 569.994 206.955 565.323 211.59C560.689 216.225 555.196 218.542 548.846 218.542C545.124 218.542 542.113 217.922 539.814 216.681C537.515 215.44 535.691 213.798 534.34 211.754L529.14 241.205H514.743ZM536.201 200.97C536.712 202.905 537.752 204.62 539.322 206.116C540.927 207.576 543.044 208.306 545.672 208.306C549.576 208.306 552.697 206.901 555.032 204.091C557.368 201.244 558.919 197.65 559.685 193.307L560.123 190.843C560.926 186.428 560.616 182.924 559.192 180.333C557.806 177.706 555.196 176.392 551.364 176.392C548.664 176.392 546.255 177.122 544.139 178.582C542.059 180.005 540.453 181.684 539.322 183.618L536.201 200.97ZM579.392 193.033L579.665 191.281C581.015 183.545 584.446 177.377 589.956 172.779C595.467 168.145 602.145 165.827 609.991 165.827C617.728 165.827 623.275 168.035 626.632 172.451C630.026 176.83 631.03 182.906 629.643 190.679L629.15 194.785H586.946L587.822 186.957H616.013L616.067 186.574C616.615 183.727 616.305 181.282 615.137 179.239C613.969 177.158 611.615 176.118 608.075 176.118C604.353 176.118 601.306 177.45 598.934 180.114C596.562 182.742 594.974 186.026 594.171 189.968L593.733 193.143C592.931 197.887 593.314 201.609 594.883 204.31C596.452 206.974 599.153 208.306 602.985 208.306C605.758 208.306 608.167 207.758 610.21 206.663C612.29 205.569 614.006 204.091 615.356 202.229L626.523 206.116C624.297 209.911 621.122 212.959 616.998 215.258C612.911 217.557 607.674 218.706 601.288 218.706C592.894 218.706 586.781 216.407 582.95 211.809C579.154 207.211 577.968 200.952 579.392 193.033ZM632.325 217.447L641.193 167.196H655.699L654.495 174.202H654.55C656.411 171.867 658.619 169.951 661.173 168.455C663.765 166.958 666.593 166.21 669.658 166.21C670.607 166.21 671.538 166.283 672.45 166.429C673.399 166.539 674.037 166.667 674.366 166.813L672.395 177.815C671.775 177.596 671.008 177.432 670.096 177.323C669.184 177.177 668.18 177.104 667.085 177.104C664.604 177.104 662.049 177.907 659.422 179.512C656.794 181.081 654.568 183.162 652.743 185.753L647.16 217.447H632.325ZM668.728 203.105C669.603 198.142 672.268 194.164 676.72 191.172C681.172 188.179 686.701 186.683 693.306 186.683H705.896L706.608 182.851C707.046 180.151 706.717 178.126 705.623 176.775C704.528 175.388 702.484 174.695 699.492 174.695C696.536 174.695 694.164 175.297 692.375 176.502C690.587 177.669 689.511 179.385 689.146 181.647L688.872 182.851L675.515 182.797L675.789 181.209C676.592 176.721 679.329 173.053 684 170.206C688.708 167.36 694.693 165.937 701.955 165.937C709.29 165.937 714.563 167.305 717.775 170.042C721.023 172.743 722.081 177.177 720.95 183.344L717.063 205.35C716.698 207.539 716.498 209.619 716.461 211.59C716.461 213.524 716.717 215.203 717.228 216.626L717.063 217.447H702.886C702.484 216.535 702.229 215.44 702.119 214.163C702.01 212.849 701.991 211.499 702.064 210.112C700.495 212.156 698.087 214.017 694.839 215.696C691.591 217.338 687.704 218.159 683.179 218.159C677.851 218.159 673.891 216.882 671.3 214.327C668.709 211.773 667.852 208.032 668.728 203.105ZM683.179 202.12C682.778 204.602 683.179 206.463 684.383 207.703C685.624 208.944 687.595 209.565 690.295 209.565C693.215 209.565 696.043 208.543 698.78 206.499C701.554 204.456 703.159 202.156 703.597 199.602L704.637 194.511H696.426C692.412 194.511 689.31 195.131 687.12 196.372C684.967 197.613 683.653 199.529 683.179 202.12ZM727.628 177.98L729.489 167.196H763.428L761.567 177.98H727.628ZM731.515 202.284L737.317 169.604L737.81 168.947L741.204 149.515H755.108L746.349 199.164C745.692 202.923 745.765 205.331 746.568 206.39C747.371 207.448 748.849 207.977 751.002 207.977C751.915 207.977 752.79 207.922 753.63 207.813C754.506 207.667 755.363 207.43 756.203 207.101L754.396 217.283C753.447 217.611 752.061 217.903 750.236 218.159C748.411 218.414 746.203 218.542 743.612 218.542C738.832 218.542 735.365 217.32 733.212 214.874C731.059 212.393 730.493 208.196 731.515 202.284ZM761.403 217.447L770.271 167.196H784.941L776.128 217.447H761.403ZM772.46 149.022C772.825 146.869 773.865 145.044 775.581 143.548C777.332 142.052 779.558 141.304 782.259 141.304C784.923 141.304 786.839 142.033 788.007 143.493C789.174 144.953 789.576 146.796 789.211 149.022C788.81 151.175 787.733 153.018 785.981 154.551C784.266 156.083 782.058 156.85 779.358 156.85C776.694 156.85 774.778 156.083 773.61 154.551C772.442 153.018 772.059 151.175 772.46 149.022ZM790.251 167.196H804.265L809.739 197.467C809.885 198.525 810.049 199.565 810.231 200.587C810.414 201.573 810.541 202.339 810.614 202.886H810.833C811.089 202.339 811.472 201.554 811.983 200.533C812.53 199.511 813.059 198.489 813.57 197.467L830.102 167.196H843.513L815.213 217.447H801.035L790.251 167.196ZM840.065 193.033L840.338 191.281C841.689 183.545 845.119 177.377 850.63 172.779C856.14 168.145 862.818 165.827 870.665 165.827C878.401 165.827 883.948 168.035 887.306 172.451C890.699 176.83 891.703 182.906 890.316 190.679L889.824 194.785H847.619L848.495 186.957H876.686L876.741 186.574C877.288 183.727 876.978 181.282 875.81 179.239C874.642 177.158 872.288 176.118 868.749 176.118C865.026 176.118 861.979 177.45 859.607 180.114C857.235 182.742 855.647 186.026 854.845 189.968L854.407 193.143C853.604 197.887 853.987 201.609 855.556 204.31C857.125 206.974 859.826 208.306 863.658 208.306C866.431 208.306 868.84 207.758 870.883 206.663C872.964 205.569 874.679 204.091 876.029 202.229L887.196 206.116C884.97 209.911 881.795 212.959 877.671 215.258C873.584 217.557 868.347 218.706 861.961 218.706C853.567 218.706 847.455 216.407 843.623 211.809C839.827 207.211 838.641 200.952 840.065 193.033Z" fill="black"/>
<path fill-rule="evenodd" clip-rule="evenodd" d="M140.912 173.103C139.613 164.38 139.779 162.582 144.517 133.922C146.245 123.46 147.276 113.854 146.806 112.569C146.047 110.485 144.493 110.304 132.432 110.892C118.423 111.572 112.224 113.508 109.225 118.132C108.294 119.573 106.794 120.738 105.892 120.722C102.551 120.667 110.5 108.904 117.499 101.198C124.985 92.9563 123.762 91.8192 163.106 92.8959L190.015 93.6349C194.406 93.7552 197.835 97.4874 197.566 101.873C197.509 102.798 197.459 103.702 197.42 104.601C197.227 108.98 193.482 112.348 189.11 112.033L181.726 111.501C173.011 110.873 165.192 110.893 164.19 111.542C162.799 112.449 162.223 119.17 161.681 140.859C161.211 159.736 161.204 166.405 162.124 169.953C162.641 171.95 163.939 173.689 165.754 174.669C176.104 180.254 185.746 152.431 184.576 163.838C183.398 172.919 182.98 182.86 172.622 189.716C162.674 196.303 144.631 194.173 140.912 173.103Z" fill="black"/>
<path d="M266.652 90.8791L226.517 21.3638C223.798 16.6535 218.73 13.7275 213.291 13.7275H89.8133C84.3748 13.7275 79.3069 16.6535 76.5872 21.3638C76.5872 21.3638 47.8694 74.3151 36.4354 92.9563C33.8031 97.2477 29.5554 96.171 27.2499 95.005C24.0761 93.3999 24.0386 89.568 26.1411 85.8899C40.5942 60.606 65.2507 14.8183 65.2507 14.8183C70.3009 6.07124 79.7133 0.636719 89.8133 0.636719H213.291C223.392 0.636719 232.804 6.07124 237.855 14.8183L277.989 84.3336L266.652 90.8791Z" fill="black"/>
<path d="M224.505 92.8071L200.747 51.6574C198.027 46.9471 192.959 44.0214 187.521 44.0214H114.66C109.221 44.0214 104.153 46.9471 101.434 51.6574L79.0759 93.6548C79.0759 93.6548 75.7565 99.1063 69.9882 96.3894C64.6343 93.8676 67.7391 87.1096 67.7391 87.1096L90.0973 45.1122C95.1472 36.3645 104.56 30.9307 114.66 30.9307H187.521C197.622 30.9307 207.034 36.3645 212.084 45.1122L235.841 86.2619L224.505 92.8071Z" fill="black"/>
<path d="M282.801 85.0361C282.801 91.569 277.505 96.8656 270.972 96.8656C264.439 96.8656 259.143 91.569 259.143 85.0361C259.143 78.5032 264.439 73.207 270.972 73.207C277.505 73.207 282.801 78.5032 282.801 85.0361Z" fill="black"/>
<path d="M238.659 85.0361C238.659 91.569 233.362 96.8656 226.829 96.8656C220.296 96.8656 215 91.569 215 85.0361C215 78.5032 220.296 73.207 226.829 73.207C233.362 73.207 238.659 78.5032 238.659 85.0361Z" fill="black"/>
<path d="M207.176 271.234H83.6982C73.5974 271.234 64.1858 265.799 59.1352 257.052L25.5645 198.905L36.9009 192.36L70.472 250.507C73.1918 255.217 78.2597 258.143 83.6982 258.143H207.176C212.615 258.143 217.683 255.217 220.403 250.507L265.237 183.871C265.237 183.871 268.708 179.334 273.88 181.926C278.904 184.442 276.574 190.416 276.574 190.416L231.739 257.052C226.689 265.799 217.277 271.234 207.176 271.234Z" fill="black"/>
<path d="M188.001 240.245H115.141C105.04 240.245 95.6282 234.811 90.578 226.063L68.2422 188.381L78.9245 180.527L101.914 219.518C104.634 224.228 109.702 227.154 115.141 227.154H188.001C193.441 227.154 198.508 224.228 201.228 219.518L222.428 183.628C222.428 183.628 225.975 178.852 231.18 181.683C235.917 184.258 234.093 189.68 234.093 189.68L212.565 226.063C207.421 234.756 198.102 240.245 188.001 240.245Z" fill="black"/>
<path d="M91.1605 192.363C91.1605 198.896 85.8643 204.192 79.3314 204.192C72.7985 204.192 67.502 198.896 67.502 192.363C67.502 185.83 72.7985 180.533 79.3314 180.533C85.8643 180.533 91.1605 185.83 91.1605 192.363Z" fill="black"/>
<path d="M43.0882 192.363C43.0882 198.896 37.7917 204.192 31.2588 204.192C24.7259 204.192 19.4297 198.896 19.4297 192.363C19.4297 185.83 24.7259 180.533 31.2588 180.533C37.7917 180.533 43.0882 185.83 43.0882 192.363Z" fill="black"/>
<path d="M19.7781 169.865C18.6165 169.602 17.5304 169.005 16.7079 168.18C15.8664 167.335 16.6498 168.764 7.72866 151.794C4.26918 145.214 1.32239 139.533 1.18004 139.172C0.839905 138.307 0.802881 136.328 1.10841 135.343C1.30891 134.697 15.0609 111.291 15.9306 110.116C17.1778 108.431 19.6834 107.442 21.7614 107.813C24.1583 108.241 26.1304 110.049 26.7531 112.387C27.1024 113.7 26.9221 115.385 26.3001 116.619C26.1676 116.882 23.7039 121.082 20.8259 125.951C17.9475 130.821 15.4849 135.02 15.3535 135.283C14.8041 136.384 14.7076 137.95 15.1162 139.137C15.2111 139.412 17.8442 144.5 20.9675 150.442C24.0904 156.384 26.7426 161.488 26.8611 161.784C27.1385 162.478 27.24 164.262 27.0532 165.161C26.3937 168.338 22.9266 170.58 19.7781 169.865Z" fill="black"/>
<path d="M285.47 169.83C283.842 169.403 282.29 168.168 281.535 166.698C280.626 164.927 280.583 162.823 281.422 161.156C281.568 160.865 284.05 156.638 286.936 151.762C289.823 146.885 292.278 142.713 292.391 142.49C292.897 141.49 293.04 140.121 292.753 139.001C292.557 138.234 292.983 139.068 286.559 126.857C283.568 121.171 281.034 116.281 280.928 115.992C280.655 115.244 280.578 114.769 280.578 113.843C280.578 112.869 280.774 112.033 281.196 111.192C281.562 110.463 281.723 110.233 282.285 109.637C284.576 107.208 288.481 107.077 290.912 109.347C291.25 109.663 291.687 110.165 291.882 110.463C292.492 111.393 306.433 137.991 306.666 138.671C306.843 139.186 306.89 139.492 306.92 140.323C306.963 141.544 306.796 142.348 306.299 143.316C305.71 144.464 292.17 167.263 291.79 167.747C291.039 168.704 289.773 169.503 288.488 169.831C287.647 170.047 286.294 170.046 285.47 169.83Z" fill="black"/>
</svg>
